<svg width="24" height="24" viewBox="0 0 24 24" fill="none" xmlns="http://www.w3.org/2000/svg">
<rect x="0.285714" y="0.285714" width="23.4286" height="23.4286" rx="11.7143" stroke="white" stroke-width="0.571429"/>
<path d="M8 11.4286C7.68441 11.4286 7.42857 11.6844 7.42857 12C7.42857 12.3156 7.68441 12.5714 8 12.5714V11.4286ZM16.4041 12.4041C16.6272 12.1809 16.6272 11.8191 16.4041 11.5959L12.7675 7.95939C12.5444 7.73623 12.1825 7.73623 11.9594 7.95939C11.7362 8.18255 11.7362 8.54436 11.9594 8.76751L15.1919 12L11.9594 15.2325C11.7362 15.4556 11.7362 15.8175 11.9594 16.0406C12.1825 16.2638 12.5444 16.2638 12.7675 16.0406L16.4041 12.4041ZM8 12.5714H16V11.4286H8V12.5714Z" fill="white"/>
</svg>
